
<svg xmlns="http://www.w3.org/2000/svg" width="70" height="81" viewBox="0 0 70 81" fill="none">
<path d="M38.1 40.6501C38.9 40.6501 39.5 41.35 39.5 42.05C39.5 42.55 39.2 43.0501 38.8 43.1501V46.4501L36.5 48.9501V53.55C36.5 53.9501 36.1 54.3501 35.7 54.3501C35.3 54.3501 34.9 53.9501 34.9 53.55V48.6501C34.9 48.5501 34.9 48.55 34.9 48.4501C34.9 48.4501 34.9 48.4501 35 48.3501L37.1 46.25V43.4501C36.7 43.1501 36.4 42.7501 36.4 42.3501C36.7 41.2501 37.4 40.6501 38.1 40.6501ZM30.5 0.0500488C27.1 1.25005 23.8 3.05005 21.1 5.45005C18.2 8.05005 15.8 11.25 14.3 14.85C13.3 17.15 12.7 19.55 12.4 21.95C11.7 28.65 14.4 34.55 19.5 38.9501C20.3 39.6501 21 40.25 21.7 40.9501C22.2 41.55 22.7 41.9501 22.9 42.75C22.9 42.75 22.9 42.8501 23 42.8501C22.7 43.2501 22.4 43.6501 22.1 43.8501C22.1 43.5501 22 43.25 21.9 43.05C21.7 42.4501 21.3 42.0501 20.9 41.6501C20.2 40.9501 19.5 40.35 18.7 39.75C13.3 35.05 10.5 28.95 11.2 21.75C11.5 19.15 12.2 16.75 13.1 14.35C15.7 8.85005 19.1 4.95005 24.4 1.95005C17.3 4.25005 6.19999 11.35 4.29999 21.25C4.19999 21.05 3.89999 20.55 3.69999 20.25C0.899985 26.45 -0.400015 36.25 2.69999 41.25C2.19999 41.05 1.79999 40.85 1.69999 40.55C2.49999 44.25 3.79999 50.75 9.29999 50.6501C7.99999 50.9501 6.49999 50.9501 5.59999 50.75C6.89999 53.1501 9.09999 56.4501 12.3 56.25C11.8 56.6501 10.8 56.9501 10.2 57.05C11.2 58.15 13.1 60.4501 16.2 60.05C15.8 60.4501 15.2 60.6501 14.3 60.75C15.7 61.85 17.2 62.8501 18.9 63.6501C19.1 64.1501 19.4 64.65 19.6 65.15C17 63.95 14.6 62.2501 12.4 60.3501C12.7 60.3501 12.9 60.35 13.1 60.25C10.7 59.35 9.59999 57.6501 8.49999 56.4501C8.79999 56.4501 8.99999 56.4501 9.19999 56.3501C6.69999 55.1501 4.99999 51.75 3.89999 49.6501C4.19999 49.75 4.69999 49.75 4.89999 49.6501C1.99999 46.8501 0.999985 42.3501 0.399985 38.6501C0.599985 38.75 0.699985 38.8501 0.799985 38.8501C-0.400015 33.4501 -0.200015 26.25 3.69999 18.25C3.79999 18.45 3.89999 18.55 4.09999 18.65C7.79998 8.05005 19 0.950049 30.5 0.0500488ZM45.3 75.4501C44.7 75.8501 44.2 76.2501 44 76.9501C43.1 77.4501 42.5 77.7501 41.2 77.9501C42.4 78.15 43.6 78.0501 44.8 77.7501C44.8 76.9501 45 76.05 45.3 75.4501ZM48.1 72.05C48.1 72.4501 48.1 72.9501 48.1 73.15C47.7 73.4501 47 73.7501 46.3 73.8501C47.5 74.05 48.7 73.9501 49.7 73.4501C49 73.15 48.6 72.8501 48.1 72.05ZM45.6 74.8501C47.5 75.4501 49.7 75.4501 51.8 73.8501C50 72.8501 48.5 71.3501 47.5 69.55L48.4 68.7501C49.4 70.9501 51.3 72.55 53.7 73.55C52.2 75.4501 49.7 76.4501 47.6 76.3501C46.8 77.2501 46.6 78.8501 47.3 79.8501C43.4 80.3501 41.1 80.9501 38.5 78.8501L38.7 77.65C39.7 78.35 40.3 78.8501 41.5 79.05C42.3 79.15 43.1 79.15 43.9 79.05C44.6 78.9501 45.1 78.8501 45.8 78.8501C45.7 77.8501 45.9 76.65 46.6 75.9501C46.2 75.4501 45.8 75.2501 45.6 74.8501ZM24.3 75.4501C24.9 75.8501 25.4 76.2501 25.6 76.9501C26.5 77.4501 27.1 77.7501 28.4 77.9501C27.2 78.15 26 78.0501 24.8 77.7501C24.8 76.9501 24.6 76.05 24.3 75.4501ZM21.5 72.05C21.5 72.4501 21.5 72.9501 21.5 73.15C21.9 73.4501 22.6 73.7501 23.3 73.8501C22.1 74.05 20.9 73.9501 19.9 73.4501C20.6 73.15 21 72.8501 21.5 72.05ZM24 74.8501C22.1 75.4501 19.9 75.4501 17.8 73.8501C19.6 72.8501 21.1 71.3501 22.1 69.55L21.2 68.7501C20.2 70.9501 18.3 72.55 15.9 73.55C17.4 75.4501 19.9 76.4501 22 76.3501C22.8 77.2501 23 78.8501 22.3 79.8501C26.2 80.3501 28.5 80.9501 31.1 78.8501L30.9 77.65C29.9 78.35 29.3 78.8501 28.1 79.05C27.3 79.15 26.5 79.15 25.7 79.05C25 78.9501 24.5 78.8501 23.8 78.8501C23.9 77.8501 23.7 76.65 23 75.9501C23.5 75.4501 23.8 75.2501 24 74.8501ZM46.6 42.8501C46.9 43.2501 47.2 43.6501 47.5 43.8501C47.5 43.5501 47.6 43.25 47.7 43.05C47.9 42.4501 48.3 42.0501 48.7 41.6501C49.4 40.9501 50.1 40.35 50.9 39.75C56.3 35.05 59.1 28.95 58.4 21.75C58.1 19.15 57.4 16.75 56.5 14.35C53.9 8.75005 50.5 4.85005 45.2 1.95005C52.3 4.25005 63.5 11.25 65.4 21.15C65.5 20.95 65.8 20.45 66 20.15C68.8 26.35 70 36.25 67 41.1501C67.5 40.9501 67.9 40.75 68 40.4501C67.2 44.1501 65.9 50.65 60.4 50.55C61.7 50.85 63.2 50.8501 64.1 50.6501C62.8 53.0501 60.6 56.3501 57.4 56.1501C57.9 56.5501 58.9 56.8501 59.5 56.9501C58.5 58.05 56.6 60.3501 53.5 59.9501C53.9 60.3501 54.5 60.5501 55.4 60.6501C54 61.75 52.5 62.75 50.8 63.55C50.6 64.05 50.3 64.55 50.1 65.05C52.7 63.85 55.1 62.1501 57.3 60.25C57 60.25 56.8 60.25 56.6 60.1501C59 59.25 60.1 57.5501 61.2 56.3501C60.9 56.3501 60.7 56.35 60.5 56.25C63 55.05 64.7 51.65 65.8 49.55C65.5 49.65 65 49.65 64.8 49.55C67.7 46.75 68.7 42.25 69.3 38.55C69.1 38.65 69 38.75 68.9 38.75C70.1 33.35 69.9 26.15 66 18.15C65.9 18.35 65.8 18.45 65.6 18.55C61.9 8.05005 50.7 0.950049 39.1 0.0500488C42.5 1.25005 45.8 3.05005 48.5 5.45005C51.4 8.05005 53.8 11.25 55.3 14.85C56.3 17.15 56.9 19.55 57.2 21.95C57.9 28.65 55.2 34.55 50.1 38.9501C49.3 39.6501 48.6 40.25 47.9 40.9501C47.4 41.55 47 42.0501 46.6 42.8501C46.7 42.7501 46.7 42.7501 46.6 42.8501ZM33.6 34.9501C32.5 34.55 32.1 33.4501 32.6 32.1501C32.6 33.0501 32.9 33.6501 33.6 33.9501C34.3 33.4501 34.5 32.85 34.3 31.95C34.8 33.25 34.6 34.55 33.6 34.9501ZM41.8 29.65C41.2 29.35 40.7 29.25 40.1 29.25C39.8 29.25 39.5 29.05 39.6 28.45C39 29.75 38.8 30.55 37.1 30.15C36.1 29.95 35.7 30.75 35.9 31.55C36 32.05 36.2 32.75 35.7 33.25C35.5 32.4501 35 32.15 34.6 31.85C35.5 33.05 35.1 33.85 34.9 34.25C36.9 33.85 36.9 35.4501 36.6 36.25C37.1 36.25 37.6 36.3501 37.9 36.3501C37.4 34.7501 37 33.15 36.9 31.45C36.9 31.15 36.9 31.05 37.1 31.15C38.2 31.35 39.3 31.15 40 30.15C41.1 30.05 42 30.45 42.9 31.05C43.1 29.25 43.2 27.55 41 26.85C40.7 25.85 39.9 25.45 38.8 25.55C37.4 23.35 32.3 25.65 30.3 24.25C29.6 23.75 29.4 22.95 29.3 22.15C28.6 22.85 28.1 23.25 27.8 24.25C27.3 25.55 27.6 27.15 28.5 28.35C29.1 29.15 29.9 29.65 30.8 29.85C30.7 29.95 30.6 30.05 30.6 30.15C29.5 31.95 29.6 34.6501 29.6 36.75C29.9 36.6501 30.3 36.65 30.6 36.55C30.3 35.55 30.6 34.4501 32 34.3501C31.8 33.9501 31.5 33.25 32.3 31.95C31.8 32.15 31.3 32.6501 31.2 33.3501C30.8 32.7501 30.8 32.25 31 31.75C31.1 31.45 31.2 31.25 31.3 31.05V30.95C32.3 29.05 35.7 30.25 36.6 27.35C36.3 27.75 35.9 28.05 35.6 28.25C35 28.55 34.6 27.35 33.8 27.35C34.1 27.55 34.2 27.95 34.2 28.35C34.1 28.75 33.9 28.85 33.6 28.55C33.3 28.25 33.1 27.65 32.6 27.55C32.9 27.85 32.9 28.25 32.8 28.55C32.7 28.95 32.4 29.15 32.1 28.75C31.9 28.55 31.8 28.15 31.5 27.95C31.6 28.45 31.1 28.95 30.5 28.65C29.6 28.25 29.1 27.65 28.7 26.85C28.4 25.95 28.4 25.05 28.8 24.25C28.8 24.25 28.8 24.25 28.8 24.15C30.6 27.45 37.1 24.25 37.9 26.35L38 26.75H38.4C39.1 26.65 39.8 26.65 39.9 27.55V27.95L40.2 28.05C41.3 28.05 41.8 28.75 41.8 29.65ZM31.5 36.4501C31.7 36.05 32 35.8501 32.2 35.6501C32.1 35.9501 32 36.1501 31.9 36.4501C31.7 36.4501 31.7 36.4501 31.5 36.4501ZM35.5 36.3501C35.4 36.0501 35.1 35.6501 34.8 35.3501C35.3 35.4501 35.8 35.7501 36.1 36.3501C35.9 36.3501 35.6 36.3501 35.5 36.3501ZM32.5 36.3501C32.5 36.1501 32.6 35.9501 32.6 35.75C32.6 35.9501 32.6 36.1501 32.7 36.25L32.5 36.3501ZM34.5 36.3501C34.5 36.1501 34.4 35.85 34.4 35.55C34.6 35.85 34.7 36.0501 34.8 36.3501H34.5ZM10.4 25.45C10.2 31.65 12.8 36.8501 18.2 41.8501C19.3 43.0501 19.4 44.4501 19.8 45.6501C20 45.5501 20.2 45.4501 20.4 45.25C20.3 44.6501 20.3 44.2501 20.2 43.8501C20.5 44.0501 20.7 44.4501 20.9 44.9501C21.1 44.8501 21.2 44.65 21.4 44.55C21.4 44.35 21.3 44.1501 21.3 43.9501C21.3 43.75 21.2 43.4501 21.1 43.25C20.7 42.25 19 40.9501 18.2 40.3501C13.6 36.5501 10.7 31.35 10.4 25.45ZM10.6 34.75C4.09999 28.9501 5.69999 18.75 10.7 14.55C10.1 16.95 9.99999 19.35 10.3 21.75C10.6 19.05 11.3 16.55 12.3 14.05C13.5 11.15 15.3 8.35005 17.6 5.85005C12.7 8.95005 7.59999 13.75 5.69999 19.15C4.19999 24.05 4.89999 31.25 10.6 34.75ZM3.39999 24.25C0.599985 33.25 1.49999 44.3501 10.1 41.9501C4.79999 42.1501 2.89999 38.85 3.39999 31.45C4.69999 34.65 7.59999 36.35 10.2 37.25C6.09999 34.35 3.59999 31.05 3.39999 24.25ZM3.29999 43.1501C4.59999 49.8501 8.99999 50.1501 11.6 47.75C8.59999 49.35 6.49999 47.9501 5.49999 45.6501C7.99999 45.8501 9.19999 45.1501 10.4 44.1501C8.29999 44.75 5.99999 44.8501 3.29999 43.1501ZM7.49999 52.05C10.6 56.85 13.9 54.5501 14.7 52.8501C13.3 54.0501 11.2 54.25 10.1 52.9501C11.4 52.3501 12.4 51.35 12.9 50.25C11.3 51.55 9.49998 52.05 7.49999 52.05ZM15.9 54.05C15 55.85 13.7 56.9501 12 57.4501C13.6 59.25 16.2 59.5501 17.2 58.1501C17.2 57.8501 17.1 57.6501 17.1 57.3501C16.4 58.1501 15.4 58.3501 14.3 57.6501C15.2 56.5501 15.7 55.4501 15.9 54.05ZM18.1 61.4501C18 61.05 17.9 60.6501 17.8 60.4501C17.4 60.9501 17 61.1501 16.5 61.25C17.2 61.6501 17.8 61.6501 18.1 61.4501ZM11.1 36.75C9.99999 42.85 13 42.1501 14.8 41.9501C13.1 41.6501 11.7 40.9501 11.8 39.1501C12.7 39.75 13.9 39.9501 14.8 39.9501C12.6 39.05 11.6 37.35 11.1 36.75ZM11.2 42.8501C11.1 48.2501 14.4 46.9501 15.6 45.75C14 46.35 12.7 46.05 12.6 44.55C13.9 44.65 14.8 44.05 15.4 43.55C12.8 44.25 11.8 43.3501 11.2 42.8501ZM12.5 48.25C14 52.05 15.7 51.0501 16.7 49.6501C16.7 49.4501 16.7 49.3501 16.7 49.1501C15.7 50.0501 14.7 50.1501 14.3 49.25C15.5 48.6501 16 47.75 16.2 46.9501C14.4 48.6501 13.1 48.35 12.5 48.25ZM14.8 52.05C15.6 53.15 16.2 53.75 16.7 54.05C16.6 53.25 16.6 52.4501 16.6 51.6501C15.9 52.1501 15.2 52.05 14.8 52.05ZM15.6 41.9501C15.7 45.9501 17.6 45.1501 18.6 44.75C17.6 44.85 16.5 44.6501 16.5 43.4501C17.2 43.6501 17.7 43.55 18.3 43.4501C16.8 43.1501 15.9 42.25 15.6 41.9501ZM16.3 45.8501C16.5 46.5501 16.7 46.9501 16.9 47.3501V47.05L17.4 46.8501C17.4 46.7501 17.4 46.75 17.3 46.6501C18.2 46.4501 18.5 45.9501 18.8 45.55C17.4 46.35 16.6 46.0501 16.3 45.8501ZM8.79999 19.35C7.19999 22.35 6.89999 28.4501 10.5 32.75C9.59999 31.65 8.39999 27.65 8.89999 24.35C8.49999 23.05 8.39999 21.25 8.79999 19.35ZM4.79999 36.3501C5.39999 39.0501 6.79999 40.6501 9.39999 40.75C8.39999 40.25 7.49999 39.75 6.99999 39.05C7.69999 39.15 8.39999 39.1501 9.19999 38.8501C7.39999 38.5501 5.99999 37.5501 4.79999 36.3501ZM8.39999 46.75C9.09999 47.35 9.89999 47.4501 10.8 47.05C10.5 47.05 10.2 46.9501 9.99999 46.75C10.2 46.55 10.3 46.25 10.3 46.05C9.79999 46.55 8.99999 46.75 8.39999 46.75ZM12 52.75C12.7 52.85 13.4 52.9501 14 52.25C13.7 52.35 13.5 52.35 13.3 52.25C13.4 51.9501 13.4 51.6501 13.3 51.3501C13.1 51.9501 12.6 52.4501 12 52.75ZM15.7 56.9501C16.2 56.8501 16.7 56.6501 16.9 56.25C16.9 56.1501 16.9 56.0501 16.9 55.8501C16.8 55.8501 16.7 55.9501 16.6 55.8501C16.6 55.6501 16.4 55.25 16.2 55.05C16.3 55.85 16.1 56.4501 15.7 56.9501ZM59.3 25.45C59.5 31.65 56.9 36.8501 51.5 41.8501C50.4 43.0501 50.3 44.4501 49.9 45.6501C49.7 45.5501 49.5 45.4501 49.3 45.25C49.4 44.6501 49.4 44.2501 49.5 43.8501C49.2 44.0501 49 44.4501 48.8 44.9501C48.6 44.8501 48.5 44.65 48.3 44.55C48.3 44.35 48.4 44.1501 48.4 43.9501C48.4 43.75 48.5 43.4501 48.6 43.25C49 42.25 50.7 40.9501 51.5 40.3501C56.1 36.5501 58.8 31.35 59.3 25.45ZM58.9 34.75C65.5 28.85 63.8 18.65 58.8 14.45C59.4 16.85 59.5 19.25 59.2 21.65C58.9 18.95 58.2 16.45 57.2 13.95C56 11.05 54.2 8.25005 51.9 5.75005C56.8 8.85005 61.9 13.65 63.8 19.05C65.5 24.05 64.7 31.25 58.9 34.75ZM66.2 24.25C69 33.25 68.1 44.3501 59.5 41.9501C64.8 42.1501 66.7 38.85 66.2 31.45C64.9 34.65 62 36.35 59.4 37.25C63.5 34.35 66 31.05 66.2 24.25ZM66.3 43.1501C65 49.8501 60.6 50.1501 58 47.75C61 49.35 63.1 47.9501 64.1 45.6501C61.6 45.8501 60.4 45.1501 59.2 44.1501C61.4 44.75 63.7 44.8501 66.3 43.1501ZM62.1 52.05C59 56.85 55.7 54.5501 54.9 52.8501C56.3 54.0501 58.4 54.25 59.5 52.9501C58.2 52.3501 57.2 51.35 56.7 50.25C58.4 51.55 60.2 52.05 62.1 52.05ZM53.8 54.05C54.7 55.75 56 56.9501 57.7 57.3501C56.1 59.1501 53.5 59.4501 52.5 58.05C52.5 57.75 52.6 57.55 52.6 57.25C53.3 58.05 54.3 58.25 55.4 57.55C54.5 56.55 54 55.4501 53.8 54.05ZM51.6 61.4501C51.7 61.05 51.8 60.6501 51.9 60.4501C52.3 60.9501 52.7 61.1501 53.2 61.25C52.4 61.6501 51.9 61.6501 51.6 61.4501ZM58.5 36.75C59.6 42.85 56.6 42.1501 54.8 41.9501C56.5 41.6501 57.9 40.9501 57.8 39.1501C57 39.8501 55.7 39.9501 54.8 39.9501C57 39.05 58 37.35 58.5 36.75ZM58.4 42.8501C58.5 48.2501 55.2 46.9501 54 45.75C55.6 46.35 56.9 46.05 57 44.55C55.7 44.65 54.8 44.05 54.2 43.55C56.7 44.25 57.9 43.3501 58.4 42.8501ZM57.1 48.25C55.6 52.05 53.9 51.0501 52.9 49.6501C52.9 49.4501 52.9 49.3501 52.9 49.1501C53.9 50.0501 54.9 50.1501 55.3 49.25C54.1 48.6501 53.6 47.75 53.4 46.9501C55.1 48.6501 56.5 48.35 57.1 48.25ZM54.8 52.05C54 53.15 53.4 53.75 52.9 54.05C53 53.25 53 52.4501 53 51.6501C53.7 52.1501 54.4 52.05 54.8 52.05ZM54.1 41.9501C54 45.9501 52.1 45.1501 51.1 44.75C52.1 44.85 53.2 44.6501 53.2 43.4501C52.5 43.6501 52 43.55 51.4 43.4501C52.9 43.1501 53.7 42.25 54.1 41.9501ZM53.4 45.8501C53.2 46.5501 53 46.9501 52.8 47.3501V47.05L52.2 46.8501C52.2 46.7501 52.2 46.75 52.3 46.6501C51.4 46.4501 51.1 45.9501 50.8 45.55C52.2 46.35 53 46.0501 53.4 45.8501ZM60.7 19.35C62.3 22.35 62.6 28.4501 59 32.75C59.9 31.65 61.1 27.65 60.6 24.35C61.1 23.05 61.3 21.25 60.7 19.35ZM64.7 36.3501C64.1 39.0501 62.7 40.6501 60.1 40.75C61.1 40.25 62 39.75 62.5 39.05C61.8 39.15 61.1 39.1501 60.3 38.8501C62.3 38.5501 63.7 37.5501 64.7 36.3501ZM61.3 46.75C60.6 47.35 59.8 47.4501 58.9 47.05C59.2 47.05 59.5 46.9501 59.7 46.75C59.5 46.55 59.4 46.25 59.4 46.05C59.9 46.55 60.6 46.75 61.3 46.75ZM57.7 52.75C57 52.85 56.3 52.9501 55.7 52.25C56 52.35 56.2 52.35 56.4 52.25C56.3 51.9501 56.3 51.6501 56.4 51.3501C56.5 51.9501 57 52.4501 57.7 52.75ZM54 56.9501C53.5 56.8501 53 56.6501 52.8 56.25C52.8 56.1501 52.8 56.0501 52.8 55.8501C52.9 55.8501 53 55.9501 53.1 55.8501C53.1 55.6501 53.3 55.25 53.5 55.05C53.3 55.85 53.5 56.4501 54 56.9501ZM34.9 26.15C36.2 26.85 37.2 26.25 37.9 26.65C38.5 26.95 38.8 28.05 38 28.25C38 27.65 37.5 27.75 37.2 27.75C36.9 27.75 36.6 27.45 36.6 27.15C36.6 27.05 36.6 26.95 36.7 26.85C36.1 26.95 35.4 26.85 34.9 26.15ZM29.5 25.85C29.4 26.85 29.8 27.55 30.6 28.05C30.4 27.65 30.3 27.25 30.2 26.85C31.6 27.05 33.1 26.75 34.4 26.15C32.5 26.65 30.9 26.45 29.5 25.85ZM45.8 60.1501C46.6 60.5501 47.3 60.5501 48.1 60.3501C48.9 60.1501 49.5 59.75 50 59.1501C50.7 58.3501 50.9 57.4501 50.8 56.55C50.7 55.85 50.4 55.15 49.9 54.55C50.1 54.15 50.2 53.7501 50.3 53.3501C50.4 52.5501 50.4 51.8501 50.1 51.1501C49.8 50.4501 49.4 49.9501 48.9 49.3501C48.3 48.8501 47.6 48.5501 46.9 48.3501C46.1 48.2501 45.4 48.35 44.7 48.55C44.2 48.75 43.7 49.0501 43.4 49.3501C42.7 48.9501 42.1 48.8501 41.4 48.9501C40.5 49.05 39.6 49.4501 39 50.1501C38.5 50.75 38.2 51.4501 38.1 52.25C38.1 53.05 38.3 53.75 38.8 54.4501C39 54.8501 39.5 54.8501 39.8 54.6501C40.2 54.4501 40.2 53.9501 40 53.6501C39.7 53.25 39.6 52.75 39.6 52.4501C39.6 51.9501 39.8 51.55 40.1 51.25C40.5 50.75 41 50.55 41.5 50.4501C41.8 50.4501 42.2 50.4501 42.5 50.55C42.3 50.9501 42.1 51.4501 42 51.75C41.9 52.1501 42.2 52.5501 42.6 52.6501C43 52.75 43.4 52.4501 43.5 52.05C43.6 51.55 43.8 51.0501 44.1 50.8501C44.4 50.4501 44.9 50.1501 45.2 49.9501C45.7 49.75 46.2 49.7501 46.6 49.8501C47.1 49.9501 47.5 50.1501 47.8 50.4501C48.2 50.75 48.5 51.25 48.7 51.55C48.9 52.05 48.9 52.55 48.8 52.9501C48.7 53.4501 48.5 53.9501 48.2 54.25C47.9 54.55 47.5 54.9501 47.1 55.05C46.7 55.15 46.5 55.65 46.6 56.05C46.7 56.4501 47.2 56.65 47.6 56.55C48.2 56.35 48.6 56.0501 48.9 55.6501C49.1 55.9501 49.2 56.25 49.2 56.55C49.3 57.15 49.1 57.55 48.7 58.05C48.4 58.4501 48 58.6501 47.6 58.75C47.1 58.85 46.7 58.8501 46.3 58.6501C45.9 58.4501 45.4 58.65 45.3 59.05C45.2 59.65 45.4 60.0501 45.8 60.1501ZM45.1 61.6501C45.1 61.9501 45.1 62.1501 45.1 62.4501V62.75L42.9 63.75L42.8 63.9501C42.7 64.2501 42.6 64.55 42.5 64.8501C42.4 65.1501 42.2 65.4501 42.1 65.7501L41.9 65.9501L42.8 68.15C42.6 68.4501 42.3 68.7501 42.1 68.9501C41.8 69.2501 41.6 69.4501 41.3 69.65L39.1 68.7501L38.9 68.9501C38.6 69.05 38.3 69.2501 38 69.3501C37.7 69.4501 37.4 69.55 37.1 69.65L36.7 69.7501L35.7 71.9501H35.4C35.2 71.9501 34.9 71.9501 34.6 71.9501C34.3 71.9501 34.1 71.9501 33.8 71.9501H33.5L32.5 69.7501L32.1 69.65C31.8 69.55 31.5 69.4501 31.2 69.3501C30.9 69.2501 30.6 69.05 30.3 68.9501L30 68.7501L27.8 69.65C27.5 69.4501 27.2 69.15 27 68.9501C26.7 68.65 26.5 68.4501 26.3 68.15L27.2 65.9501L27.1 65.7501C27 65.4501 26.8 65.1501 26.7 64.8501C26.6 64.55 26.5 64.2501 26.4 63.9501L26.3 63.55L24.1 62.55V62.25C24.1 62.05 24.1 61.75 24.1 61.4501C24.1 61.05 23.7 60.6501 23.3 60.6501C22.9 60.6501 22.5 61.05 22.5 61.4501C22.5 61.75 22.5 62.0501 22.5 62.3501C22.5 62.6501 22.6 62.9501 22.6 63.25L22.7 63.6501L25 64.65C25.1 64.85 25.2 65.1501 25.3 65.3501C25.4 65.55 25.5 65.8501 25.6 66.05L24.6 68.3501L24.9 68.7501C25.3 69.2501 25.6 69.65 26 69.9501C26.4 70.3501 26.9 70.75 27.2 71.05L27.5 71.3501L29.9 70.3501C30.1 70.4501 30.4 70.55 30.6 70.65C30.8 70.75 31.1 70.8501 31.3 70.9501L32.3 73.2501L32.7 73.3501C33 73.3501 33.3 73.4501 33.6 73.4501C33.9 73.4501 34.2 73.4501 34.5 73.4501C34.8 73.4501 35.1 73.4501 35.4 73.4501C35.7 73.4501 36 73.3501 36.3 73.3501L36.7 73.2501L37.7 70.9501C37.9 70.8501 38.2 70.75 38.4 70.65C38.6 70.55 38.9 70.4501 39.1 70.3501L41.4 71.3501L41.8 71.05C42.3 70.65 42.7 70.3501 43 69.9501C43.4 69.55 43.8 69.0501 44.1 68.7501L44.4 68.4501L43.4 66.05C43.5 65.8501 43.6 65.55 43.7 65.3501C43.8 65.1501 43.9 64.85 44 64.65L46.3 63.6501L46.4 63.25C46.4 62.9501 46.5 62.6501 46.5 62.3501C46.5 62.0501 46.5 61.75 46.5 61.4501C46.5 61.05 46.1 60.6501 45.7 60.6501C45.4 61.0501 45.1 61.3501 45.1 61.6501ZM24.5 53.9501C25.7 49.75 22.7 50.0501 21.7 48.1501C22.6 50.1501 20.4 52.25 24.5 53.9501ZM43.4 55.05C43.1 55.4501 42.8 55.85 42.6 56.05C42.5 56.25 42.3 56.4501 42.2 56.55C41.9 56.35 41.7 56.25 41.4 56.05C40.9 55.85 40.4 55.65 39.8 55.55C39.4 55.4501 39 55.75 38.9 56.1501C38.8 56.5501 39.1 56.9501 39.5 57.05C39.9 57.15 40.4 57.25 40.7 57.4501C40.9 57.55 41 57.6501 41.2 57.75C39.9 59.25 38.3 60.6501 36.6 61.9501C35.9 62.55 35.2 62.9501 34.4 63.4501C34.2 63.3501 34 63.15 33.8 63.05C33.4 62.85 33 62.85 32.8 63.25C32.6 63.6501 32.6 64.0501 33 64.2501C32.2 64.7501 31.4 65.15 30.5 65.4501C30.1 65.65 29.9 66.05 30.1 66.4501C30.3 66.8501 30.7 67.05 31.1 66.8501C32.2 66.3501 33.3 65.8501 34.3 65.2501C34.7 65.4501 35.1 65.7501 35.4 65.9501C36.3 66.4501 37.1 66.9501 38.1 67.2501C38.5 67.4501 39 67.2501 39.1 66.8501C39.3 66.4501 39.1 65.9501 38.7 65.8501C37.8 65.4501 37 65.05 36.1 64.65C36 64.55 35.8 64.4501 35.7 64.4501C36.3 64.05 36.8 63.6501 37.4 63.3501C39.1 62.0501 40.7 60.4501 42.2 58.8501C42.3 58.9501 42.4 59.1501 42.6 59.25C42.9 59.6501 43.1 60.0501 43.2 60.3501C43.3 60.6501 43.8 60.9501 44.2 60.8501C44.6 60.7501 44.8 60.2501 44.7 59.8501C44.5 59.3501 44.2 58.8501 43.9 58.4501C43.7 58.1501 43.5 57.9501 43.3 57.6501C43.5 57.4501 43.6 57.25 43.8 57.05C44.1 56.65 44.4 56.25 44.7 55.9501C44.9 55.55 44.9 55.1501 44.5 54.9501C44.2 54.6501 43.7 54.65 43.4 55.05ZM33.1 58.4501C34.9 61.25 32.7 61.4501 32.5 63.05C31.3 60.35 32.9 59.9501 33.1 58.4501ZM26.7 62.4501C29.6 65.15 30.3 62.6501 32.1 62.75C29.4 60.75 28.5 62.55 26.7 62.4501ZM24.2 59.6501C26.8 63.0501 28 60.65 29.9 61.05C27.4 58.25 26.1 60.0501 24.2 59.6501ZM29.6 54.8501C29.5 56.5501 27.7 57.15 29.3 60.05C29.4 58.35 31.8 57.8501 29.6 54.8501ZM28.2 52.3501C28 54.1501 26 54.6501 27.5 57.8501C27.9 56.0501 30.4 55.8501 28.2 52.3501ZM22.3 56.8501C24.5 60.5501 26 58.1501 27.9 58.8501C25.6 55.8501 24.1 57.5501 22.3 56.8501ZM20.7 53.8501C22.3 57.8501 24.2 55.75 25.9 56.6501C24.1 53.3501 22.4 54.7501 20.7 53.8501ZM26.2 50.05C26.1 52.05 24.1 52.75 26 55.9501C26 53.9501 28.8 53.55 26.2 50.05ZM31.6 56.4501C31.4 58.1501 29.5 58.6501 31 61.6501C31.2 59.8501 33.6 59.6501 31.6 56.4501ZM31.8 51.55V55.25L36 59.4501C36.3 59.75 36.8 59.75 37 59.4501C37.3 59.1501 37.3 58.6501 37 58.4501L33.3 54.75V47.9501L35.7 45.55V43.3501C36.1 43.0501 36.4 42.6501 36.4 42.25C36.4 41.4501 35.7 40.8501 35 40.8501C34.3 40.8501 33.6 41.55 33.6 42.25C33.6 42.75 33.9 43.2501 34.3 43.3501V44.9501L31.9 47.3501V49.55L30.2 47.8501V43.3501C30.6 43.0501 30.9 42.6501 30.9 42.25C30.9 41.4501 30.2 40.8501 29.5 40.8501C28.8 40.8501 28.1 41.55 28.1 42.25C28.1 42.75 28.4 43.2501 28.8 43.3501V48.4501L31.8 51.55ZM38.1 41.6501C37.8 41.6501 37.6 41.8501 37.6 42.1501C37.6 42.4501 37.8 42.6501 38.1 42.6501C38.4 42.6501 38.6 42.4501 38.6 42.1501C38.6 41.8501 38.3 41.6501 38.1 41.6501ZM34.9 41.6501C34.6 41.6501 34.4 41.8501 34.4 42.1501C34.4 42.4501 34.6 42.6501 34.9 42.6501C35.2 42.6501 35.4 42.4501 35.4 42.1501C35.4 41.8501 35.2 41.6501 34.9 41.6501ZM29.4 41.6501C29.1 41.6501 28.9 41.8501 28.9 42.1501C28.9 42.4501 29.1 42.6501 29.4 42.6501C29.7 42.6501 29.9 42.4501 29.9 42.1501C29.9 41.8501 29.7 41.6501 29.4 41.6501Z" fill="#00598E"/>
<path d="M34.8 80.85C48.5 74.25 56.2 63.55 54.1 45.85C49.3 44.65 46.4 41.75 46 36.95C42.7 35.55 38.9 34.75 34.8 34.75C30.7 34.75 26.9 35.45 23.6 36.95C23.1 41.75 20.3 44.65 15.5 45.85C13.4 63.55 21.1 74.35 34.8 80.85ZM25.8 38.55C28.7 37.55 31.8 37.05 34.9 37.05C37.9 37.05 41.1 37.55 44 38.55C44.9 43.15 47.8 46.05 52.1 47.55C53.3 61.95 47.7 71.85 35 78.35C22.2 71.85 16.5 61.95 17.9 47.65C22 46.15 24.9 43.15 25.8 38.55Z" fill="#6CAF60"/>
</svg>
